<svg width="32" height="32" viewBox="0 0 32 32" fill="none" xmlns="http://www.w3.org/2000/svg">
  <rect width="32" height="32" rx="8" fill="#4299E1"/>
  <path d="M8 6C8 5.44772 8.44772 5 9 5H15C15.5523 5 16 5.44772 16 6V26C16 26.5523 15.5523 27 15 27H9C8.44772 27 8 26.5523 8 26V6Z" fill="white"/>
  <path d="M18 6C18 5.44772 18.4477 5 19 5H25C25.5523 5 26 5.44772 26 6V20C26 20.5523 25.5523 21 25 21H19C18.4477 21 18 20.5523 18 20V6Z" fill="white" opacity="0.8"/>
  <circle cx="22" cy="24" r="2" fill="#68D391"/>
</svg>